M48
INCH,TZ
T1C0.024
T2C0.032
T3C0.039
T4C0.040
T5C0.045
T6C0.047
T7C0.050
T8C0.100
T9C0.118
T10C0.276
%
G90
G05
T1
X31434Y-34320
X31964Y-24025
X32763Y-20347
X33639Y-34336
X33756Y-24074
X34965Y-21677
X36884Y-38623
X37697Y-35218
X37806Y-26694
X38335Y-28156
X38709Y-34821
X38809Y-33883
X39776Y-28428
X39993Y-27081
X41001Y-27882
X42901Y-49123
X44185Y-28723
X44627Y-33531
X45008Y-30200
X45226Y-50281
X45357Y-32935
X45826Y-29918
X46066Y-32894
X46696Y-30373
X47889Y-35628
X48470Y-30589
X48528Y-32335
X50133Y-50746
X51356Y-33260
X51470Y-34178
X51744Y-32583
X51830Y-50645
X54927Y-44397
X56959Y-44788
X57769Y-43789
X57769Y-45043
T2
X35500Y-35450
X35500Y-36450
X35511Y-30659
X35511Y-33659
X41433Y-41233
X41433Y-43233
X42433Y-42233
X44500Y-40700
X44500Y-42700
X45250Y-48450
X45250Y-49450
X45500Y-41700
X47500Y-40700
X47500Y-42700
X48500Y-41700
X54000Y-46450
X54000Y-48450
X54000Y-49450
X55000Y-45450
X56000Y-46450
X57750Y-41950
X57750Y-42950
X59250Y-38950
X60250Y-37950
X61250Y-38950
X63250Y-43250
X63250Y-44250
T3
X33425Y-22473
X34425Y-22473
X35425Y-22473
X36425Y-22473
X37425Y-22473
X38425Y-22473
X39425Y-22473
X40425Y-22473
X41425Y-22473
X42425Y-22473
X43425Y-22473
X44425Y-22473
X45425Y-22473
X46425Y-22473
X47425Y-22473
X48425Y-22473
X52750Y-24950
X52750Y-27950
X53000Y-34700
X53000Y-36700
X54750Y-24950
X54750Y-27950
X56000Y-34700
X56000Y-36700
X56250Y-24950
X56250Y-27950
X58250Y-24950
X58250Y-27950
X59750Y-24950
X59750Y-27950
X61750Y-24950
X61750Y-27950
X63250Y-24950
X63250Y-27950
X65250Y-24950
X65250Y-27950
T4
X37500Y-31500
X37500Y-32500
X37500Y-33500
X39000Y-48450
X39000Y-49450
X40500Y-48450
X40500Y-49450
X45500Y-36700
X45500Y-37700
X47000Y-36700
X47000Y-37700
X49000Y-34450
X49000Y-35450
X49000Y-36450
X50000Y-34450
X50000Y-35450
X50000Y-36450
X51250Y-29200
X51250Y-30200
X57500Y-30250
X58500Y-30250
X59500Y-30250
X60500Y-30250
X61500Y-30250
X62750Y-38150
X62750Y-39150
X62750Y-40150
T5
X64250Y-39489
X65250Y-39489
X66250Y-39489
T6
X34750Y-47000
T7
X34500Y-29000
X35500Y-25000
X36500Y-29000
T8
X61100Y-47700
X62600Y-49700
X63500Y-47700
T9
X30472Y-22473
X30472Y-44127
X65250Y-32989
X67086Y-22473
X67086Y-44127
T10
X34750Y-42000
T0
M30
